<?xml version="1.0" standalone="no"?>
<!DOCTYPE svg PUBLIC "-//W3C//DTD SVG 20010904//EN"
 "http://www.w3.org/TR/2001/REC-SVG-20010904/DTD/svg10.dtd">
<svg version="1.0" xmlns="http://www.w3.org/2000/svg"
 width="3464.000000pt" height="3464.000000pt" viewBox="0 0 3464.000000 3464.000000"
 preserveAspectRatio="xMidYMid meet">
<metadata>
Created by potrace 1.14, written by Peter Selinger 2001-2017
</metadata>
<g transform="translate(0.000000,3464.000000) scale(0.100000,-0.100000)"
fill="#000000" stroke="none">
<path d="M6289 28160 c0 -58 0 -5622 0 -5673 1 -24 5 -36 11 -32 15 9 93 10
108 1 7 -4 12 -3 12 3 0 10 18 10 35 -1 6 -4 17 -3 24 2 8 4 26 4 42 0 15 -5
30 -6 33 -3 5 6 89 8 111 3 6 -1 15 -1 20 0 13 2 87 2 100 0 6 -1 15 -1 20 0
6 1 28 1 50 1 45 -2 50 -2 118 0 27 1 50 -1 53 -4 3 -2 20 -1 39 3 21 5 38 3
44 -3 8 -8 11 -7 11 2 0 10 3 11 14 2 8 -7 16 -8 19 -4 6 10 59 9 75 -1 7 -4
12 -2 12 5 0 8 3 9 13 0 8 -6 17 -8 20 -4 9 8 91 8 105 -1 6 -3 13 -3 15 1 6
10 59 9 75 -1 7 -4 12 -2 12 5 0 9 3 9 14 0 8 -7 16 -8 19 -4 6 10 59 9 75 -1
7 -4 12 -2 12 5 0 8 3 9 13 0 8 -6 17 -8 20 -5 9 9 102 8 116 0 6 -4 11 -2 11
5 0 9 3 9 14 0 8 -7 16 -8 19 -4 6 10 59 9 75 -1 7 -4 12 -2 12 5 0 8 3 9 13
0 8 -6 17 -8 20 -4 9 8 91 8 105 -1 6 -3 13 -3 15 1 6 10 59 9 75 -1 7 -4 12
-2 12 5 0 9 3 9 14 0 8 -7 16 -8 19 -4 6 10 59 9 75 -1 7 -4 12 -2 12 5 0 9 3
9 14 0 9 -8 16 -8 20 -2 4 6 15 7 30 1 12 -4 29 -4 36 0 9 5 20 4 27 -2 9 -7
13 -7 13 0 0 11 18 11 35 0 6 -4 17 -3 25 2 8 5 21 5 31 0 9 -5 19 -7 23 -3 5
5 107 8 131 3 6 -1 15 -1 20 0 13 2 87 2 100 0 6 -1 15 -1 20 0 13 2 87 2 100
0 6 -1 13 -1 18 0 19 5 75 3 85 -4 7 -4 12 -3 12 3 0 10 18 10 35 -1 6 -4 17
-3 24 2 8 4 26 4 42 0 15 -5 30 -6 33 -3 5 6 89 8 111 3 6 -1 15 -1 20 0 13 2
87 2 100 0 6 -1 15 -1 20 0 6 1 28 1 50 1 45 -2 50 -2 118 0 27 1 50 -1 53 -4
3 -2 20 -1 39 3 21 5 38 3 44 -3 8 -8 11 -7 11 2 0 10 3 11 14 2 8 -7 16 -8
19 -4 6 10 59 9 75 -1 7 -4 12 -2 12 5 0 8 3 9 13 0 8 -6 17 -8 20 -4 9 8 91
8 105 -1 6 -3 13 -3 15 1 6 10 59 9 75 -1 7 -4 12 -2 12 5 0 9 3 9 14 0 8 -7
16 -8 19 -4 6 10 59 9 75 -1 7 -4 12 -2 12 5 0 9 3 9 14 0 9 -8 16 -8 20 -2 4
6 15 7 30 1 12 -4 29 -4 36 0 9 5 20 4 27 -2 9 -7 13 -7 13 0 0 11 18 11 35 0
6 -4 17 -3 25 2 8 5 21 5 31 0 9 -5 19 -7 23 -3 5 5 107 8 131 3 6 -1 15 -1
20 0 13 2 87 2 100 0 6 -1 15 -1 20 0 13 2 87 2 100 0 6 -1 13 -1 18 0 19 5
75 3 85 -4 7 -4 12 -3 12 3 0 10 18 10 35 -1 6 -4 17 -3 24 2 8 4 26 4 42 0
15 -5 30 -6 33 -3 5 6 89 8 111 3 6 -1 15 -1 20 0 13 2 87 2 100 0 6 -1 15 -1
20 0 6 1 28 1 50 1 45 -2 50 -2 118 0 27 1 50 -1 53 -4 3 -2 20 -1 39 3 21 5
38 3 44 -3 8 -8 11 -7 11 2 0 10 3 11 14 2 8 -7 16 -8 19 -4 6 10 59 9 75 -1
7 -4 12 -2 12 5 0 8 3 9 13 0 8 -6 17 -8 20 -4 9 8 91 8 105 -1 6 -3 13 -3 15
1 6 10 59 9 75 -1 7 -4 12 -2 12 5 0 9 3 9 14 0 8 -7 16 -8 19 -4 6 10 59 9
75 -1 7 -4 12 -2 12 5 0 9 3 9 14 0 9 -8 16 -8 20 -2 4 6 15 7 30 1 12 -4 29
-4 36 0 9 5 20 4 27 -2 9 -7 13 -7 13 0 0 11 18 11 35 0 6 -4 17 -3 25 2 8 5
21 5 31 0 9 -5 19 -7 23 -3 5 5 107 8 131 3 6 -1 15 -1 20 0 13 2 87 2 100 0
6 -1 15 -1 20 0 13 2 87 2 100 0 6 -1 13 -1 18 0 19 5 75 3 85 -4 7 -4 12 -3
12 3 0 10 18 10 35 -1 6 -4 17 -3 24 2 8 4 26 4 42 0 15 -5 30 -6 33 -3 5 6
89 8 111 3 6 -1 15 -1 20 0 13 2 87 2 100 0 6 -1 15 -1 20 0 6 1 28 1 50 1 45
-2 50 -2 118 0 27 1 50 -1 53 -4 3 -2 20 -1 39 3 21 5 38 3 44 -3 8 -8 11 -7
11 2 0 10 3 11 14 2 8 -7 16 -8 19 -4 6 10 59 9 75 -1 7 -4 12 -2 12 5 0 8 3
9 13 0 8 -6 17 -8 20 -4 9 8 91 8 105 -1 6 -3 13 -3 15 1 6 10 59 9 75 -1 7
-4 12 -2 12 5 0 9 3 9 14 0 8 -7 16 -8 19 -4 6 10 59 9 75 -1 7 -4 12 -2 12 5
0 9 3 9 14 0 9 -8 16 -8 20 -2 4 6 15 7 30 1 12 -4 29 -4 36 0 9 5 20 4 27 -2
9 -7 13 -7 13 0 0 11 18 11 35 0 6 -4 17 -3 25 2 8 5 21 5 31 0 9 -5 19 -7 23
-3 5 5 107 8 131 3 6 -1 15 -1 20 0 13 2 87 2 100 0 6 -1 15 -1 20 0 13 2 87
2 100 0 6 -1 13 -1 18 0 19 5 75 3 85 -4 7 -4 12 -3 12 3 0 10 18 10 35 -1 6
-4 17 -3 24 2 8 4 26 4 42 0 15 -5 30 -6 33 -3 5 6 89 8 111 3 6 -1 15 -1 20
0 13 2 87 2 100 0 6 -1 15 -1 20 0 6 1 28 1 50 1 22 -1 46 -1 53 -1 6 0 33 0
60 0 119 0 136 1 140 5 2 2 14 0 27 -5 13 -5 26 -6 29 -2 6 5 76 7 101 2 6 -1
13 -1 18 0 19 5 75 3 85 -4 7 -4 12 -3 12 3 0 10 18 10 35 -1 6 -4 17 -3 24 2
8 4 26 4 42 0 15 -5 30 -6 33 -3 5 6 89 8 111 3 6 -1 15 -2 20 0 13 2 128 2
140 0 6 -1 15 -1 20 0 13 2 87 2 100 0 6 -1 13 -1 18 0 19 5 75 3 85 -4 7 -4
12 -3 12 3 0 10 18 10 35 -1 6 -4 17 -3 24 2 8 4 26 4 42 0 15 -5 30 -6 33 -3
5 6 89 8 111 3 6 -1 15 -2 20 0 13 2 128 2 140 0 6 -1 15 -1 20 0 13 2 87 2
100 0 6 -1 13 -1 18 0 19 5 75 3 85 -4 7 -4 12 -3 12 3 0 10 18 10 35 -1 6 -4
17 -3 24 2 8 4 26 4 42 0 15 -5 30 -6 33 -3 5 6 89 8 111 3 6 -1 15 -2 20 0
13 2 128 2 140 0 6 -1 15 -1 20 0 13 2 87 2 100 0 6 -1 13 -1 18 0 19 5 75 3
85 -4 7 -4 12 -3 12 3 0 10 18 10 35 -1 6 -4 17 -3 24 2 8 4 26 4 42 0 15 -5
30 -6 33 -3 8 8 102 7 115 -1 5 -4 12 -2 16 4 4 6 12 7 24 1 10 -6 23 -6 31
-1 9 5 19 5 27 -2 9 -7 13 -7 13 0 0 11 18 11 35 0 6 -4 17 -3 25 2 8 5 21 5
31 0 9 -5 19 -7 23 -3 5 5 107 8 131 3 6 -1 15 -1 20 0 13 2 87 2 100 0 6 -1
15 -1 20 0 13 2 87 2 100 0 6 -1 13 -1 18 0 19 5 75 3 85 -4 7 -4 12 -3 12 3
0 10 18 10 35 -1 6 -4 17 -3 24 2 8 4 26 4 42 0 15 -5 30 -6 33 -3 5 6 89 8
111 3 6 -1 15 -1 20 0 13 2 87 2 100 0 6 -1 13 -1 18 0 19 5 75 3 85 -4 7 -4
12 -3 12 3 0 10 18 10 35 -1 6 -4 17 -3 24 2 8 4 27 4 42 0 17 -5 31 -5 35 1
4 6 10 6 18 0 7 -6 16 -8 19 -5 9 9 102 8 116 0 6 -4 11 -12 11 -17 0 -6 -4
-8 -9 -4 -5 3 -12 -4 -16 -15 -3 -11 -9 -19 -13 -19 -20 3 -32 -2 -27 -11 5
-9 0 -11 -21 -9 -3 0 -15 -12 -26 -26 -11 -14 -23 -24 -26 -21 -3 3 -16 -7
-28 -22 -13 -15 -24 -23 -24 -18 0 5 -8 -1 -19 -12 -10 -12 -22 -22 -26 -22
-4 0 -16 -10 -26 -22 -11 -11 -19 -18 -19 -15 0 3 -15 -7 -32 -24 -18 -16 -38
-29 -46 -29 -7 0 -10 -4 -7 -10 3 -5 0 -10 -9 -10 -8 0 -26 -14 -40 -31 -14
-17 -30 -27 -36 -24 -5 3 -10 2 -10 -3 0 -5 -11 -15 -25 -22 -13 -7 -22 -17
-20 -21 3 -4 -4 -10 -15 -14 -11 -3 -20 -11 -20 -16 0 -5 -3 -8 -8 -7 -4 2
-14 -3 -22 -10 -8 -7 -31 -26 -50 -42 -19 -16 -41 -30 -48 -30 -7 0 -11 -4 -8
-9 3 -4 -6 -13 -19 -19 -14 -7 -25 -16 -25 -22 0 -6 -4 -9 -8 -6 -5 3 -14 -4
-22 -14 -8 -10 -17 -17 -22 -14 -4 3 -11 -2 -14 -10 -3 -9 -13 -16 -21 -16 -8
0 -11 -4 -8 -10 3 -5 -1 -10 -9 -10 -9 0 -16 -4 -16 -10 0 -5 -4 -10 -10 -10
-5 0 -19 -9 -30 -20 -12 -12 -26 -18 -32 -14 -7 4 -8 3 -4 -4 8 -13 -28 -35
-39 -24 -5 4 -5 1 -1 -6 5 -9 1 -15 -13 -19 -11 -3 -18 -9 -15 -14 5 -8 -10
-13 -29 -10 -5 1 -6 -2 -3 -7 3 -5 -6 -15 -19 -22 -14 -7 -25 -17 -25 -22 0
-4 -5 -8 -11 -8 -6 0 -16 -6 -23 -12 -7 -7 -27 -24 -45 -38 -18 -14 -40 -32
-49 -40 -8 -8 -18 -15 -22 -15 -6 0 -25 -15 -61 -47 -10 -10 -22 -18 -25 -18
-12 0 -33 -28 -26 -35 4 -5 2 -5 -4 -2 -6 4 -23 -4 -38 -18 -14 -13 -26 -21
-26 -17 0 4 -11 -4 -25 -18 -36 -37 -53 -50 -65 -50 -5 0 -10 -5 -10 -10 0 -6
-12 -15 -26 -20 -15 -6 -22 -14 -18 -22 4 -6 3 -8 -4 -4 -6 3 -15 -1 -20 -10
-5 -9 -12 -15 -16 -15 -3 1 -12 -3 -19 -9 -50 -43 -65 -54 -87 -68 -14 -9 -29
-22 -33 -29 -4 -7 -12 -13 -18 -13 -5 0 -20 -11 -32 -24 -12 -13 -25 -24 -29
-25 -5 -1 -19 -11 -32 -22 -13 -12 -27 -21 -30 -20 -3 0 -23 -16 -45 -35 -22
-20 -41 -34 -43 -32 -3 1 -16 -10 -31 -26 -15 -16 -27 -25 -27 -21 0 4 -9 -2
-20 -15 -11 -13 -20 -20 -20 -17 0 3 -11 -4 -24 -16 -35 -33 -77 -67 -82 -67
-3 0 -14 -9 -26 -20 -12 -10 -25 -17 -30 -14 -4 3 -8 -2 -8 -10 0 -9 -5 -16
-11 -16 -7 0 -22 -11 -35 -26 -13 -14 -24 -22 -24 -18 0 4 -7 -1 -16 -12 -8
-10 -12 -12 -8 -4 3 8 -7 0 -24 -17 -17 -18 -36 -33 -41 -33 -6 0 -11 -4 -11
-10 0 -5 -7 -10 -15 -10 -8 0 -15 -5 -15 -10 0 -6 -11 -15 -25 -22 -13 -6 -22
-15 -19 -19 3 -5 -1 -9 -8 -9 -14 0 -64 -37 -110 -82 -15 -14 -28 -24 -28 -22
0 2 -11 -3 -25 -12 -14 -9 -22 -21 -18 -27 3 -5 1 -7 -4 -4 -6 4 -19 -1 -30
-11 -11 -9 -35 -28 -54 -42 -18 -14 -40 -32 -49 -41 -9 -8 -24 -18 -33 -22 -9
-3 -17 -11 -17 -17 0 -5 -6 -10 -13 -10 -7 0 -18 -9 -25 -20 -7 -12 -17 -18
-22 -15 -6 3 -10 1 -10 -4 0 -6 -7 -11 -16 -11 -8 0 -13 -4 -10 -8 3 -5 -7
-15 -22 -23 -15 -8 -33 -22 -40 -31 -7 -10 -20 -18 -28 -18 -8 0 -17 -7 -20
-15 -4 -8 -13 -15 -21 -15 -8 0 -11 -4 -8 -10 3 -5 0 -10 -8 -10 -8 0 -22 -9
-32 -20 -10 -11 -22 -17 -28 -13 -5 3 -7 2 -4 -4 3 -5 -7 -17 -24 -27 -16 -9
-29 -21 -29 -27 0 -5 -7 -9 -15 -9 -8 0 -15 -4 -15 -9 0 -5 -12 -16 -26 -26
-15 -9 -23 -11 -19 -4 5 8 4 10 -3 5 -7 -4 -12 -14 -12 -22 0 -8 -5 -14 -11
-14 -9 0 -83 -53 -99 -71 -3 -3 -26 -21 -52 -41 -26 -19 -44 -39 -40 -43 4 -5
2 -5 -4 -2 -6 4 -28 -9 -50 -28 -21 -19 -40 -32 -42 -30 -3 2 -18 -10 -33 -26
-16 -17 -29 -28 -29 -25 0 3 -9 -3 -20 -14 -12 -12 -25 -18 -31 -15 -5 4 -8 2
-7 -4 4 -13 -62 -62 -74 -55 -5 3 -8 2 -7 -3 3 -18 -1 -33 -9 -31 -8 3 -42
-21 -94 -65 -12 -9 -25 -17 -30 -17 -5 0 -6 -4 -3 -10 3 -5 0 -10 -8 -10 -7 0
-23 -9 -35 -20 -12 -11 -26 -20 -32 -20 -5 0 -10 -5 -10 -11 0 -5 -5 -7 -12
-3 -7 4 -8 3 -4 -5 4 -6 0 -14 -9 -18 -9 -3 -31 -18 -48 -34 -16 -15 -33 -27
-36 -26 -3 1 -8 -2 -11 -8 -2 -5 -20 -21 -40 -34 -19 -13 -37 -27 -38 -32 -2
-5 -8 -7 -13 -3 -5 3 -9 -1 -9 -9 0 -8 -6 -14 -12 -13 -7 0 -15 -3 -17 -9 -2
-5 -19 -19 -38 -30 -18 -12 -31 -24 -27 -28 4 -4 1 -7 -8 -7 -8 0 -24 -8 -36
-17 -49 -42 -57 -49 -65 -50 -5 -1 -19 -13 -32 -27 -13 -14 -28 -26 -33 -26
-5 0 -17 -9 -27 -20 -10 -11 -22 -17 -28 -13 -6 3 -7 1 -3 -6 4 -6 0 -14 -10
-18 -20 -8 -50 -30 -72 -55 -9 -9 -19 -15 -23 -12 -5 2 -13 -5 -19 -16 -6 -11
-16 -20 -22 -20 -6 0 -19 -10 -29 -22 -11 -11 -19 -17 -19 -13 0 4 -11 -4 -25
-19 -13 -14 -27 -26 -30 -26 -7 0 -27 -17 -55 -44 -11 -11 -20 -17 -20 -13 0
4 -12 -5 -27 -20 -16 -16 -32 -30 -38 -32 -13 -5 -113 -81 -142 -108 -13 -12
-23 -19 -23 -16 0 3 -8 -4 -19 -15 -10 -12 -23 -22 -29 -22 -6 0 -19 -11 -30
-25 -11 -13 -21 -22 -24 -20 -2 3 -23 -13 -46 -34 -22 -21 -43 -37 -45 -34 -3
2 -16 -6 -29 -19 -38 -36 -78 -68 -78 -62 0 3 -11 -6 -24 -20 -13 -15 -31 -26
-40 -26 -9 0 -15 -3 -14 -7 2 -5 -1 -8 -5 -8 -5 0 -13 -8 -18 -18 -6 -9 -16
-14 -22 -11 -7 4 -9 4 -5 0 10 -11 -14 -34 -29 -29 -7 3 -13 -2 -13 -11 0 -9
-7 -16 -15 -16 -8 0 -15 -4 -15 -10 0 -5 -20 -21 -45 -36 -25 -14 -45 -30 -45
-35 0 -5 -4 -9 -10 -9 -10 0 -20 -7 -77 -60 -18 -16 -33 -26 -33 -22 0 4 -6 0
-13 -8 -7 -9 -37 -33 -67 -55 -30 -22 -59 -45 -63 -52 -4 -7 -14 -13 -22 -13
-7 0 -15 -3 -17 -8 -1 -4 -23 -23 -48 -42 -62 -48 -70 -56 -62 -65 4 -5 1 -5
-6 -1 -8 5 -21 1 -32 -10 -30 -30 -49 -44 -58 -44 -5 0 -19 -11 -32 -25 -12
-13 -27 -22 -33 -18 -6 3 -8 2 -5 -3 3 -5 -3 -17 -14 -27 -10 -9 -18 -14 -18
-10 -1 5 -10 -3 -20 -16 -11 -13 -20 -20 -20 -17 0 4 -6 1 -14 -6 -8 -7 -12
-16 -9 -20 2 -4 -3 -5 -11 -2 -9 3 -20 -3 -28 -15 -7 -12 -17 -21 -21 -21 -5
0 -14 -6 -21 -12 -7 -7 -25 -22 -41 -33 -15 -11 -36 -29 -46 -39 -11 -11 -19
-17 -19 -13 0 3 -17 -10 -37 -28 -21 -19 -42 -35 -47 -35 -4 0 -17 -11 -28
-25 -11 -14 -25 -25 -31 -25 -7 0 -27 -14 -44 -31 -18 -16 -33 -27 -33 -23 0
4 -11 -4 -24 -17 -31 -31 -47 -44 -74 -58 -13 -7 -20 -16 -17 -22 4 -5 3 -9
-2 -7 -13 3 -81 -41 -87 -57 -3 -8 -11 -15 -18 -15 -7 0 -24 -12 -37 -25 -13
-14 -30 -25 -38 -25 -8 0 -11 -4 -8 -10 3 -5 2 -10 -4 -10 -5 0 -17 -8 -27
-17 -10 -10 -20 -18 -24 -18 -6 0 -31 -20 -60 -49 -11 -11 -20 -16 -20 -12 0
4 -11 -5 -25 -20 -14 -15 -25 -23 -25 -19 0 4 -9 -2 -20 -15 -11 -13 -20 -20
-20 -17 0 6 -41 -27 -78 -63 -14 -14 -22 -18 -17 -10 4 8 -1 6 -13 -5 -11 -11
-35 -31 -53 -45 -18 -14 -38 -31 -45 -37 -7 -7 -16 -13 -20 -13 -4 0 -17 -11
-29 -24 -13 -14 -25 -23 -27 -20 -3 2 -21 -11 -40 -30 -20 -19 -39 -32 -42
-29 -3 4 -6 1 -6 -5 0 -6 -18 -22 -41 -35 -22 -14 -41 -28 -42 -33 -1 -5 -6
-8 -10 -6 -4 1 -10 -5 -13 -13 -4 -8 -12 -15 -18 -15 -7 0 -22 -10 -34 -22
-32 -35 -49 -47 -56 -41 -3 3 -8 -2 -12 -11 -3 -9 -12 -16 -20 -16 -8 0 -14
-5 -14 -10 0 -6 -11 -15 -25 -20 -14 -5 -25 -14 -25 -20 0 -5 -7 -10 -16 -10
-8 0 -13 -4 -9 -9 3 -5 -4 -12 -15 -16 -11 -3 -20 -11 -20 -16 0 -6 -4 -7 -10
-4 -5 3 -10 1 -10 -5 0 -6 -5 -8 -12 -4 -7 4 -8 3 -4 -4 3 -6 -3 -16 -15 -22
-20 -11 -49 -33 -74 -57 -8 -7 -21 -13 -30 -13 -10 0 -15 -5 -12 -13 3 -9 -8
-18 -29 -26 -19 -7 -32 -17 -29 -22 4 -5 1 -9 -5 -9 -6 0 -21 -11 -34 -25 -13
-13 -26 -22 -29 -18 -4 3 -9 -2 -13 -11 -3 -9 -11 -16 -18 -16 -6 0 -19 -8
-28 -17 -36 -37 -54 -51 -68 -55 -8 -2 -23 -13 -33 -25 -9 -12 -26 -25 -37
-28 -11 -4 -18 -11 -15 -16 4 -5 1 -9 -6 -9 -6 0 -26 -12 -44 -27 -17 -16 -42
-35 -55 -43 -12 -8 -31 -24 -41 -34 -11 -11 -19 -17 -19 -13 0 4 -9 -1 -19
-10 -11 -9 -17 -21 -14 -27 3 -6 3 -8 -2 -4 -8 8 -68 -32 -93 -62 -11 -13 -12
-13 -7 0 4 8 -3 4 -14 -10 -11 -14 -21 -21 -21 -17 0 4 -13 -6 -30 -23 -16
-16 -33 -30 -37 -30 -5 0 -16 -8 -25 -17 -26 -28 -46 -43 -57 -43 -5 0 -16 -9
-24 -20 -8 -11 -17 -17 -20 -13 -4 3 -7 -1 -7 -11 0 -9 -4 -14 -10 -11 -5 3
-10 1 -10 -6 0 -7 -3 -10 -6 -7 -3 4 -14 -1 -23 -10 -38 -36 -83 -67 -92 -64
-6 1 -8 -1 -6 -5 6 -10 -19 -34 -27 -26 -3 4 -6 1 -6 -5 0 -7 -7 -12 -16 -12
-8 0 -13 -3 -11 -7 3 -5 -13 -19 -34 -33 -21 -13 -39 -28 -39 -32 0 -4 -5 -8
-11 -8 -7 0 -25 -13 -40 -30 -16 -16 -29 -27 -29 -24 0 3 -7 -2 -16 -10 -8 -9
-20 -13 -26 -10 -6 4 -9 3 -6 -2 4 -8 -35 -53 -47 -54 -3 0 -10 0 -16 0 -5 0
-7 -4 -4 -10 3 -5 -1 -10 -9 -10 -9 0 -16 -4 -16 -10 0 -5 -5 -10 -12 -10 -6
0 -23 -13 -37 -29 -14 -16 -43 -38 -64 -49 -21 -11 -51 -34 -67 -50 -16 -17
-31 -28 -34 -24 -3 3 -6 0 -6 -6 0 -7 -6 -12 -13 -12 -7 0 -19 -9 -27 -20 -8
-11 -18 -20 -22 -20 -9 0 -40 -24 -78 -60 -28 -27 -34 -30 -51 -30 -5 0 -7 -4
-4 -10 3 -6 -1 -10 -10 -10 -10 0 -13 -5 -9 -12 4 -6 3 -8 -4 -4 -6 3 -23 -7
-39 -23 -16 -15 -39 -31 -51 -35 -12 -4 -20 -11 -17 -16 3 -5 -6 -12 -20 -16
-13 -3 -22 -10 -19 -15 3 -5 1 -9 -4 -9 -5 0 -20 -9 -33 -20 -37 -31 -42 -34
-79 -60 -19 -13 -42 -32 -51 -42 -9 -10 -19 -18 -23 -18 -4 0 -16 -9 -28 -20
-12 -11 -28 -20 -37 -20 -8 0 -11 -3 -8 -7 8 -7 -34 -39 -45 -35 -5 1 -8 -5
-8 -14 0 -8 -5 -12 -10 -9 -6 3 -13 -1 -16 -9 -3 -9 -11 -16 -16 -16 -6 0 -21
-11 -34 -26 -13 -14 -24 -22 -24 -19 0 3 -10 -3 -22 -15 -12 -11 -26 -20 -30
-20 -5 0 -19 -10 -31 -21 -12 -12 -16 -18 -8 -14 9 5 12 4 7 -3 -4 -7 -16 -12
-27 -12 -10 0 -19 -5 -19 -11 0 -5 -5 -7 -12 -3 -7 4 -8 3 -4 -5 4 -6 0 -14
-11 -18 -25 -10 -43 -29 -35 -38 4 -5 2 -5 -5 -2 -10 7 -34 -9 -84 -56 -11
-10 -24 -15 -30 -12 -5 4 -8 1 -7 -6 2 -7 -8 -18 -22 -26 -14 -7 -24 -17 -23
-23 2 -5 -5 -6 -15 -3 -9 3 -14 2 -10 -2 5 -5 -5 -16 -21 -26 -35 -21 -68 -48
-90 -71 -8 -10 -19 -18 -24 -18 -5 0 -14 -6 -21 -12 -7 -7 -25 -22 -41 -33
-15 -11 -38 -30 -51 -42 -13 -13 -27 -23 -32 -23 -5 0 -21 -12 -36 -26 -14
-15 -26 -24 -26 -20 0 3 -13 -8 -28 -24 -16 -16 -32 -27 -35 -23 -4 3 -9 -2
-13 -11 -3 -9 -12 -16 -20 -16 -8 0 -14 -4 -14 -10 0 -5 -17 -21 -37 -34 -21
-13 -47 -32 -58 -43 -11 -10 -28 -22 -38 -26 -11 -4 -15 -12 -11 -18 4 -7 3
-9 -3 -6 -5 3 -25 -7 -44 -24 -19 -16 -40 -29 -47 -29 -7 0 -10 -4 -7 -10 3
-5 1 -10 -5 -10 -6 0 -25 -14 -43 -30 -18 -17 -40 -33 -49 -36 -10 -3 -18 -10
-18 -15 0 -6 -4 -7 -10 -4 -5 3 -10 -1 -10 -9 0 -8 -5 -18 -12 -22 -7 -5 -8
-2 -3 7 4 8 -2 5 -13 -6 -36 -34 -51 -45 -62 -45 -6 0 -8 -4 -5 -10 3 -5 1
-10 -4 -10 -10 0 -36 -19 -67 -48 -8 -7 -14 -10 -14 -6 0 4 -9 -3 -20 -16 -11
-13 -20 -20 -20 -15 0 4 -9 -3 -20 -16 -10 -13 -19 -20 -20 -15 0 4 -14 -6
-30 -24 -17 -18 -30 -29 -30 -24 0 4 -7 -1 -15 -12 -8 -10 -15 -15 -15 -10 0
5 -11 -3 -25 -18 -13 -14 -29 -26 -35 -26 -5 0 -10 -4 -10 -9 0 -5 -16 -19
-36 -32 -20 -12 -47 -33 -60 -46 -13 -13 -24 -21 -24 -17 0 4 -9 -3 -20 -16
-11 -13 -20 -19 -20 -15 0 4 -9 -2 -20 -15 -11 -13 -20 -20 -20 -16 0 4 -11
-5 -25 -20 -14 -15 -25 -23 -25 -18 0 5 -13 -6 -29 -23 -16 -18 -31 -30 -33
-27 -3 2 -24 -14 -48 -36 -24 -22 -45 -38 -48 -36 -2 3 -15 -7 -28 -21 -13
-14 -28 -22 -35 -17 -7 4 -9 3 -6 -3 5 -8 -25 -43 -38 -43 -4 0 -34 -24 -69
-55 -6 -5 -30 -23 -53 -39 -24 -16 -43 -33 -43 -37 0 -5 -5 -9 -11 -9 -6 0
-16 -6 -24 -12 -7 -7 -25 -22 -39 -33 -15 -11 -33 -26 -41 -33 -7 -6 -19 -12
-25 -12 -6 0 -8 -4 -5 -10 3 -5 -1 -10 -9 -10 -11 0 -16 -10 -17 -27 -4 -187
0 -5866 5 -5870 3 -4 4967 -7 11031 -7 l11025 -1 1 40 c4 274 0 5707 -5 5712
-3 3 -6 1 -6 -5 0 -8 -7 -9 -24 -2 -13 5 -26 6 -29 4 -10 -10 -57 -11 -63 -2
-3 4 -10 6 -16 2 -15 -9 -128 -10 -128 -1 0 5 -5 5 -12 1 -14 -9 -82 -9 -96 0
-7 4 -12 2 -12 -5 0 -9 -3 -10 -10 -3 -6 6 -31 8 -60 4 -28 -4 -50 -2 -50 2 0
5 -5 6 -12 2 -14 -9 -82 -9 -96 0 -7 4 -12 2 -12 -5 0 -9 -3 -10 -10 -3 -6 6
-31 8 -59 4 -27 -3 -57 -3 -67 1 -11 3 -23 4 -27 2 -15 -9 -117 -8 -117 0 0 5
-5 5 -12 1 -6 -4 -28 -7 -48 -7 -20 0 -42 3 -48 7 -7 4 -12 2 -12 -5 0 -9 -3
-10 -10 -3 -6 6 -31 8 -60 4 -29 -4 -54 -2 -60 4 -7 7 -10 6 -10 -1 0 -11 -24
-12 -35 -1 -3 3 -23 2 -45 -2 -24 -4 -43 -3 -49 3 -8 8 -11 7 -11 -2 0 -10 -3
-11 -13 -3 -7 6 -18 7 -27 2 -7 -4 -24 -4 -37 1 -13 5 -23 5 -23 0 0 -9 -25
-9 -35 0 -2 3 -27 3 -55 -1 -27 -4 -50 -2 -50 2 0 5 -5 6 -12 2 -14 -9 -82 -9
-96 0 -7 4 -12 2 -12 -5 0 -9 -3 -10 -10 -3 -6 6 -31 8 -60 4 -28 -4 -50 -2
-50 2 0 5 -5 6 -12 2 -14 -9 -82 -9 -96 0 -7 4 -12 2 -12 -5 0 -9 -3 -10 -10
-3 -6 6 -31 8 -59 4 -27 -3 -57 -3 -67 1 -11 3 -23 4 -27 2 -15 -9 -117 -8
-117 0 0 5 -5 5 -12 1 -14 -9 -82 -9 -96 0 -7 4 -12 2 -12 -5 0 -9 -3 -10 -10
-3 -6 6 -31 8 -60 4 -29 -4 -54 -2 -60 4 -7 7 -10 6 -10 -1 0 -11 -24 -12 -35
-1 -3 3 -23 2 -45 -2 -24 -4 -43 -3 -49 3 -8 8 -11 7 -11 -2 0 -10 -3 -11 -13
-3 -7 6 -18 7 -27 2 -7 -4 -24 -4 -37 1 -13 5 -23 5 -23 0 0 -10 -19 -9 -35 1
-6 4 -17 3 -25 -2 -9 -5 -19 -5 -27 2 -10 8 -13 7 -13 -3 0 -9 -3 -10 -10 -3
-6 6 -31 8 -60 4 -28 -4 -50 -2 -50 2 0 5 -5 6 -12 2 -14 -9 -82 -9 -96 0 -7
4 -12 2 -12 -5 0 -9 -3 -10 -10 -3 -6 6 -31 8 -60 4 -28 -4 -50 -2 -50 2 0 5
-5 6 -12 2 -6 -4 -28 -7 -48 -7 -20 0 -42 3 -48 7 -7 4 -12 2 -12 -5 0 -9 -3
-10 -10 -3 -6 6 -31 8 -60 4 -28 -4 -50 -2 -50 2 0 5 -5 6 -12 2 -14 -9 -82
-9 -96 0 -7 4 -12 2 -12 -5 0 -9 -3 -10 -10 -3 -6 6 -31 8 -60 4 -28 -4 -50
-2 -50 2 0 5 -5 6 -12 2 -14 -9 -82 -9 -96 0 -7 4 -12 2 -12 -5 0 -8 -3 -9
-13 0 -8 6 -16 9 -18 6 -4 -3 -55 -6 -109 -5 -8 0 -26 -1 -40 -3 -14 -2 -30 1
-37 5 -6 5 -14 5 -17 -1 -4 -6 -15 -7 -30 -1 -12 4 -29 4 -36 0 -9 -5 -20 -4
-27 2 -8 6 -13 7 -13 1 0 -10 -50 -8 -77 2 -7 2 -15 -1 -19 -7 -4 -7 -9 -6
-15 3 -7 12 -9 12 -9 0 0 -10 -3 -11 -14 -2 -8 7 -17 8 -20 3 -3 -5 -28 -6
-56 -2 -28 4 -53 3 -56 -1 -2 -4 -18 -4 -34 1 -19 5 -32 5 -36 -2 -4 -6 -10
-5 -15 3 -7 11 -9 11 -9 1 0 -10 -5 -10 -20 -2 -11 6 -20 7 -20 2 0 -5 -22 -6
-50 -2 -33 4 -50 3 -50 -4 0 -6 -5 -4 -10 4 -7 11 -10 11 -10 2 0 -10 -5 -10
-20 -2 -11 6 -20 7 -20 2 0 -10 -30 -9 -48 2 -7 4 -12 2 -12 -5 0 -9 -3 -10
-10 -3 -6 6 -31 8 -60 4 -28 -4 -50 -2 -50 2 0 5 -5 6 -12 2 -6 -4 -28 -7 -48
-7 -20 0 -42 3 -48 7 -7 4 -12 2 -12 -5 0 -9 -3 -10 -10 -3 -6 6 -31 8 -60 4
-28 -4 -50 -2 -50 2 0 5 -5 6 -12 2 -6 -4 -28 -7 -48 -7 -20 0 -42 3 -48 7 -7
4 -12 2 -12 -5 0 -9 -3 -10 -10 -3 -6 6 -31 8 -60 4 -28 -4 -50 -2 -50 2 0 5
-5 6 -12 2 -14 -9 -82 -9 -96 0 -7 4 -12 2 -12 -5 0 -9 -3 -10 -10 -3 -6 6
-31 8 -60 4 -28 -4 -50 -2 -50 2 0 5 -5 6 -12 2 -14 -9 -82 -9 -96 0 -7 4 -12
2 -12 -5 0 -8 -3 -9 -13 0 -8 6 -16 9 -18 6 -4 -3 -55 -6 -109 -5 -8 0 -26 -1
-40 -3 -14 -2 -30 1 -37 5 -6 5 -14 5 -17 -1 -4 -6 -15 -7 -30 -1 -12 4 -29 4
-36 0 -9 -5 -20 -4 -27 2 -8 6 -13 7 -13 1 0 -10 -50 -8 -77 2 -7 2 -15 -1
-19 -7 -4 -7 -9 -6 -15 3 -7 12 -9 12 -9 0 0 -10 -3 -11 -14 -2 -8 7 -17 8
-20 3 -3 -5 -28 -6 -56 -2 -28 4 -53 3 -56 -1 -2 -4 -18 -4 -34 1 -19 5 -32 5
-36 -2 -4 -6 -10 -5 -15 3 -7 11 -9 11 -9 1 0 -10 -5 -10 -20 -2 -11 6 -20 7
-20 2 0 -5 -22 -6 -50 -2 -33 4 -50 3 -50 -4 0 -6 -5 -4 -10 4 -7 11 -10 11
-10 2 0 -10 -5 -10 -20 -2 -11 6 -20 7 -20 2 0 -10 -30 -9 -48 2 -7 4 -12 2
-12 -5 0 -9 -3 -10 -10 -3 -6 6 -31 8 -60 4 -28 -4 -50 -2 -50 2 0 5 -5 6 -12
2 -14 -9 -82 -9 -96 0 -7 4 -12 2 -12 -5 0 -9 -3 -10 -10 -3 -6 6 -31 8 -60 4
-28 -4 -50 -2 -50 2 0 5 -5 6 -12 2 -6 -4 -28 -7 -48 -7 -20 0 -42 3 -48 7 -7
4 -12 2 -12 -5 0 -9 -3 -10 -10 -3 -6 6 -31 8 -60 4 -28 -4 -50 -2 -50 2 0 5
-5 6 -12 2 -14 -9 -82 -9 -96 0 -7 4 -12 2 -12 -5 0 -9 -3 -10 -10 -3 -6 6
-31 8 -60 4 -28 -4 -50 -2 -50 2 0 5 -5 6 -12 2 -14 -9 -82 -9 -96 0 -7 4 -12
2 -12 -5 0 -8 -3 -9 -13 0 -8 6 -16 9 -18 6 -4 -3 -66 -6 -109 -4 -8 0 -27 -2
-43 -4 -15 -2 -30 0 -33 5 -3 4 -10 5 -17 1 -15 -9 -60 -9 -75 1 -7 4 -12 2
-12 -5 0 -9 -3 -10 -10 -3 -6 6 -31 8 -60 4 -28 -4 -50 -2 -50 2 0 5 -5 6 -12
2 -6 -4 -28 -7 -48 -7 -20 0 -42 3 -48 7 -7 4 -12 2 -12 -5 0 -9 -3 -10 -10
-3 -6 6 -31 8 -60 4 -28 -4 -50 -2 -50 2 0 5 -5 6 -12 2 -14 -9 -82 -9 -96 0
-7 4 -12 2 -12 -5 0 -9 -3 -10 -10 -3 -6 6 -31 8 -60 4 -28 -4 -50 -2 -50 2 0
5 -5 6 -12 2 -6 -4 -28 -7 -48 -7 -20 0 -42 3 -48 7 -7 4 -12 2 -12 -5 0 -9
-3 -10 -10 -3 -6 6 -31 8 -60 4 -28 -4 -50 -2 -50 2 0 5 -5 6 -12 2 -14 -9
-82 -9 -96 0 -7 4 -12 2 -12 -5 0 -8 -3 -9 -13 0 -8 6 -16 9 -18 6 -4 -3 -55
-6 -109 -5 -8 0 -26 -1 -40 -3 -14 -2 -30 1 -37 5 -6 5 -14 5 -17 -1 -4 -6
-15 -7 -30 -1 -12 4 -29 4 -36 0 -9 -5 -20 -4 -27 2 -8 6 -13 7 -13 1 0 -10
-50 -8 -77 2 -7 2 -15 -1 -19 -7 -4 -7 -9 -6 -15 3 -7 12 -9 12 -9 0 0 -10 -3
-11 -14 -2 -8 7 -17 8 -20 3 -3 -5 -28 -6 -56 -2 -28 4 -53 3 -56 -1 -2 -4
-18 -4 -34 1 -19 5 -32 5 -36 -2 -4 -6 -10 -5 -15 3 -7 11 -9 11 -9 1 0 -10
-5 -10 -20 -2 -11 6 -20 7 -20 2 0 -5 -22 -6 -50 -2 -33 4 -50 3 -50 -4 0 -6
-5 -4 -10 4 -7 11 -10 11 -10 2 0 -10 -5 -10 -20 -2 -11 6 -20 7 -20 2 0 -10
-30 -9 -48 2 -7 4 -12 2 -12 -5 0 -9 -3 -10 -10 -3 -6 6 -31 8 -60 4 -28 -4
-50 -2 -50 2 0 5 -5 6 -12 2 -14 -9 -82 -9 -96 0 -7 4 -12 2 -12 -5 0 -9 -3
-10 -10 -3 -6 6 -31 8 -60 4 -28 -4 -50 -2 -50 2 0 5 -5 6 -12 2 -14 -9 -82
-9 -96 0 -7 4 -12 2 -12 -5 0 -9 -3 -10 -10 -3 -6 6 -31 8 -60 4 -28 -4 -50
-2 -50 2 0 5 -5 6 -12 2 -14 -9 -82 -9 -96 0 -7 4 -12 2 -12 -5 0 -9 -3 -10
-10 -3 -6 6 -31 8 -60 4 -28 -4 -50 -2 -50 2 0 5 -5 6 -12 2 -14 -9 -82 -9
-96 0 -7 4 -12 2 -12 -5 0 -8 -3 -9 -13 0 -8 6 -16 9 -18 6 -4 -3 -55 -6 -109
-5 -8 0 -26 -1 -40 -3 -14 -2 -30 1 -37 5 -6 5 -14 5 -17 -1 -4 -6 -15 -7 -30
-1 -12 4 -29 4 -36 0 -9 -5 -20 -4 -27 2 -8 6 -13 7 -13 1 0 -10 -50 -8 -77 2
-7 2 -15 -1 -19 -7 -4 -7 -9 -6 -15 3 -7 12 -9 12 -9 0 0 -10 -3 -11 -14 -2
-8 7 -17 8 -20 3 -3 -5 -28 -6 -56 -2 -28 4 -53 3 -56 -1 -2 -4 -18 -4 -34 1
-19 5 -32 5 -36 -2 -4 -6 -10 -5 -15 3 -7 11 -9 11 -9 1 0 -10 -5 -10 -20 -2
-11 6 -20 7 -20 2 0 -5 -22 -6 -50 -2 -33 4 -50 3 -50 -4 0 -6 -5 -4 -10 4 -7
11 -10 11 -10 2 0 -10 -5 -10 -20 -2 -11 6 -20 7 -20 2 0 -10 -30 -9 -48 2 -7
4 -12 2 -12 -5 0 -9 -3 -10 -10 -3 -6 6 -31 8 -60 4 -28 -4 -50 -2 -50 2 0 5
-5 6 -12 2 -14 -9 -82 -9 -96 0 -7 4 -12 2 -12 -5 0 -9 -3 -10 -10 -3 -6 6
-31 8 -60 4 -28 -4 -50 -2 -50 2 0 5 -5 6 -12 2 -14 -9 -82 -9 -96 0 -7 4 -12
2 -12 -5 0 -9 -3 -10 -10 -3 -6 6 -31 8 -60 4 -28 -4 -50 -2 -50 2 0 5 -5 6
-12 2 -14 -9 -82 -9 -96 0 -7 4 -12 2 -12 -5 0 -9 -3 -10 -10 -3 -6 6 -31 8
-60 4 -28 -4 -50 -2 -50 2 0 5 -5 6 -12 2 -14 -9 -82 -9 -96 0 -7 4 -12 2 -12
-5 0 -9 -3 -10 -10 -3 -6 6 -31 8 -59 4 -27 -3 -57 -3 -67 1 -11 3 -23 4 -29
1 -7 -5 -130 -6 -130 -2 0 1 -8 3 -17 5 -10 2 -18 -1 -18 -6 0 -6 -10 -5 -22
2 l-21 12 22 11 c12 7 18 15 14 20 -4 4 1 4 11 0 13 -5 17 -4 12 4 -3 6 3 13
14 17 11 3 20 11 20 16 0 6 5 7 10 4 6 -3 10 -2 10 4 0 6 12 17 28 25 15 8 23
15 17 16 -5 0 4 9 22 19 33 21 64 45 95 74 10 9 18 14 18 10 0 -5 4 -3 8 2 4
6 48 42 97 80 50 38 96 75 103 82 7 7 16 13 20 13 4 0 21 14 39 30 18 17 37
30 42 30 6 0 11 5 11 10 0 6 7 10 16 10 8 0 12 5 9 10 -3 6 -1 10 4 10 10 0
44 25 82 62 13 12 19 13 23 5 3 -7 5 -6 5 3 1 15 40 46 54 42 4 -1 7 6 7 15 0
9 3 14 6 10 5 -5 33 16 70 51 8 7 14 11 14 7 0 -3 11 4 25 17 30 29 41 38 84
68 43 31 79 59 103 82 10 10 25 18 35 18 9 0 14 3 10 6 -7 7 46 54 62 54 6 0
11 5 11 10 0 6 7 10 16 10 8 0 12 4 9 10 -3 5 1 10 10 10 8 0 18 7 21 15 4 8
10 12 15 9 5 -3 9 0 9 6 0 6 5 8 12 4 7 -5 8 -3 4 5 -5 8 0 14 13 18 12 3 21
9 21 14 0 5 14 16 30 24 18 9 28 21 24 27 -4 6 -3 8 3 5 5 -4 19 1 29 11 10 9
53 42 95 73 41 31 83 64 92 74 9 9 17 14 17 10 0 -3 11 4 25 17 37 35 59 53
65 53 5 0 47 35 74 61 6 6 16 13 22 15 12 4 85 62 116 92 10 9 18 15 18 12 0
-5 37 25 66 53 7 6 17 12 23 12 6 0 11 5 11 10 0 6 7 10 16 10 8 0 12 5 9 10
-3 6 0 10 7 10 7 0 27 13 44 30 18 16 35 26 38 23 3 -4 6 1 6 11 0 9 5 14 10
11 6 -3 10 -1 10 5 0 6 4 9 9 6 5 -3 11 0 14 7 3 7 24 26 48 42 24 16 51 36
61 45 33 31 82 65 90 63 4 -2 7 1 5 6 -1 5 1 9 6 10 4 1 15 9 25 19 30 27 62
52 68 52 6 0 22 14 75 63 10 9 19 15 19 12 0 -3 8 3 18 13 10 9 29 24 42 32
13 8 34 26 47 39 13 13 23 20 23 16 0 -4 9 2 20 15 11 13 20 20 20 16 0 -4 6
-1 14 6 8 7 11 17 8 22 -3 5 0 6 5 3 6 -4 16 0 23 8 7 8 16 15 21 15 5 0 21
12 38 28 16 15 52 43 79 62 28 19 51 41 52 47 0 7 3 12 8 12 20 -3 32 2 32 16
0 9 6 12 17 8 11 -4 14 -3 9 5 -4 7 -1 12 6 12 8 0 21 8 29 18 9 9 26 24 38
32 33 22 72 53 93 72 10 10 22 18 28 18 6 0 10 4 10 8 0 4 12 15 28 24 15 9
37 26 50 38 12 12 28 18 35 14 6 -4 9 -3 4 1 -9 10 21 45 39 45 7 0 20 10 28
22 9 12 16 19 16 15 0 -4 9 2 20 13 11 11 25 20 31 20 5 0 7 5 3 11 -4 7 -1
10 7 7 7 -2 26 9 41 26 15 17 28 28 28 24 0 -3 16 8 36 25 19 18 36 30 37 27
1 -2 12 4 24 15 12 10 19 23 16 28 -3 6 -1 7 5 3 7 -4 12 -2 12 5 0 7 3 10 6
6 6 -6 36 16 63 46 8 9 20 17 26 17 6 0 18 8 26 18 9 9 29 26 45 37 15 11 43
33 61 49 18 15 33 25 33 22 0 -4 11 3 25 16 42 40 59 53 70 53 5 1 9 6 8 13
-2 7 2 12 8 12 12 0 92 60 97 72 2 5 8 5 14 2 5 -3 12 3 15 14 3 14 10 19 21
15 10 -4 13 -2 8 5 -4 7 -1 12 6 12 8 0 20 9 28 20 8 11 22 20 32 20 9 0 20 4
23 10 3 6 -2 8 -12 5 -10 -3 -7 0 7 7 14 7 36 23 50 35 14 13 33 26 43 29 9 3
15 10 12 15 -4 5 0 9 7 9 7 0 33 18 58 40 24 21 46 38 48 35 2 -2 16 10 31 26
15 16 31 26 34 22 4 -3 9 2 13 11 3 9 12 16 18 16 7 0 22 10 33 23 24 25 70
58 79 56 4 0 14 11 24 25 9 15 20 23 23 19 4 -3 7 -1 7 5 0 7 6 12 13 12 7 0
20 8 28 18 23 25 52 47 73 55 10 4 14 12 10 18 -4 8 -3 9 5 5 6 -4 14 0 17 8
3 9 10 13 15 10 5 -3 9 0 9 6 0 6 5 8 10 5 6 -3 10 1 10 9 0 9 5 16 11 16 8 0
81 51 99 70 25 26 89 68 95 62 5 -4 5 -1 1 6 -5 7 2 15 17 21 13 5 27 17 31
26 3 9 10 14 15 10 5 -3 17 5 25 17 9 12 16 19 16 15 0 -4 9 1 19 10 11 9 17
21 14 26 -4 6 -1 7 6 2 8 -4 18 1 27 14 8 12 22 21 30 21 8 0 14 5 14 10 0 6
7 10 16 10 8 0 12 5 9 10 -3 6 1 10 10 10 8 0 18 7 21 15 4 8 10 13 14 10 5
-3 12 1 17 9 4 8 37 35 73 62 36 26 67 51 68 56 2 4 9 8 14 8 6 0 18 7 27 15
9 8 28 26 44 40 16 15 32 23 40 19 6 -4 9 -4 5 1 -4 4 14 24 40 43 26 20 49
40 50 44 2 4 10 8 18 8 8 0 14 4 14 9 0 6 19 21 43 35 23 14 38 26 33 26 -5 0
8 11 28 25 20 14 41 25 47 25 6 0 7 5 4 10 -3 6 -2 10 3 10 5 0 18 8 30 18 11
9 30 24 43 32 12 8 30 22 40 32 9 9 20 14 23 11 3 -4 6 1 6 11 0 9 5 14 10 11
6 -3 10 -1 10 5 0 6 5 8 10 5 6 -3 10 1 10 9 0 9 6 16 14 16 16 0 72 50 69 62
-2 4 3 5 10 2 7 -2 24 7 37 21 13 14 30 25 37 25 8 0 11 5 8 10 -3 6 -1 10 4
10 6 0 20 8 30 18 38 34 51 43 51 35 0 -4 5 0 11 10 5 9 17 17 25 17 8 0 13 4
10 9 -3 4 6 13 19 19 14 7 25 16 25 22 0 5 6 9 13 7 6 -1 11 4 9 11 -1 8 2 11
7 7 6 -3 18 3 28 15 10 11 21 20 25 20 5 0 16 8 26 18 34 31 62 52 71 52 5 0
19 12 30 26 12 15 21 24 21 20 0 -5 35 22 66 52 8 7 14 11 14 8 0 -3 12 6 26
19 15 14 31 25 36 25 5 0 6 4 3 10 -4 6 1 7 11 3 12 -4 15 -3 10 5 -4 7 -2 12
3 12 11 0 38 20 73 53 10 9 21 17 26 17 4 0 26 18 50 40 24 22 47 38 53 35 5
-4 9 2 9 11 0 10 3 15 6 11 3 -3 16 5 29 19 12 13 30 24 40 24 10 0 15 3 12 7
-4 3 9 17 28 30 19 13 35 28 35 34 0 6 5 9 12 7 6 -2 23 7 38 21 37 35 63 56
97 78 15 10 35 25 44 33 32 30 64 55 71 55 4 0 14 9 22 20 9 11 16 16 16 11 0
-4 9 2 21 15 11 13 17 18 13 10 -5 -9 -3 -12 4 -7 7 4 12 14 12 23 0 9 3 14 6
10 7 -6 8 -5 67 44 20 17 37 28 37 24 0 -4 9 4 21 19 11 14 25 24 30 21 5 -4
9 1 9 9 0 10 9 16 22 16 12 0 18 3 15 7 -7 6 20 30 36 32 11 1 35 25 32 31 -2
3 10 12 26 19 16 7 41 25 56 41 15 16 30 27 35 24 4 -3 8 -1 8 5 0 5 13 18 29
27 17 10 28 21 25 26 -3 4 2 8 11 8 20 0 47 25 37 34 -3 4 2 4 12 0 14 -5 17
-4 12 4 -4 7 -1 12 8 12 9 0 16 5 16 12 0 6 3 9 6 6 3 -3 16 4 29 16 73 65 85
75 85 69 0 -4 9 3 20 14 10 12 29 24 40 28 11 4 18 11 15 16 -4 5 1 9 10 9 8
0 18 7 21 15 4 8 12 15 20 15 8 0 14 4 14 9 0 5 9 13 20 16 11 4 18 11 15 16
-4 5 1 9 10 9 8 0 18 7 21 15 4 8 10 13 14 10 5 -3 17 6 29 20 11 15 23 25 26
24 4 0 19 9 33 22 15 13 30 23 35 21 4 -1 7 3 7 9 0 5 5 7 12 3 7 -4 8 -3 4 5
-4 6 0 14 9 18 10 3 29 17 43 29 14 13 31 24 38 24 7 0 16 5 20 12 5 7 3 8 -6
3 -9 -5 -11 -4 -6 3 4 7 14 12 22 12 8 0 14 5 14 10 0 6 5 10 12 10 7 0 21 9
33 20 11 12 45 40 77 64 31 23 64 50 73 59 9 10 20 15 25 12 4 -3 10 5 13 17
4 12 9 19 13 16 6 -7 23 4 51 34 9 9 20 15 25 12 4 -3 8 2 8 11 0 9 5 13 10
10 6 -3 10 -1 10 5 0 6 5 8 10 5 6 -3 10 1 10 9 0 9 5 16 11 16 11 0 76 48
127 94 17 17 32 27 32 23 0 -4 8 1 18 11 23 22 74 63 103 82 12 8 29 23 38 33
8 9 20 17 25 17 5 0 20 12 34 28 14 15 27 25 28 22 1 -3 15 6 31 20 15 14 44
36 63 50 19 13 39 30 43 37 4 7 13 13 19 13 6 0 19 10 29 22 11 11 19 18 19
15 0 -3 10 3 23 14 76 64 123 99 135 99 7 0 11 4 8 9 -3 4 6 13 19 19 14 7 25
16 25 22 0 5 6 10 14 10 8 0 16 3 18 8 2 4 30 27 63 52 77 58 86 66 77 75 -4
4 -2 5 3 4 13 -4 95 51 95 64 0 6 3 8 6 4 6 -5 44 24 73 56 8 9 21 17 28 17 6
0 16 7 21 15 4 9 24 24 43 34 18 11 33 24 32 29 -1 6 11 14 28 17 17 4 28 9
25 12 -6 6 37 43 51 43 4 0 24 16 42 35 19 19 43 37 53 41 10 3 18 10 18 15 0
5 4 9 10 9 5 0 20 10 33 23 39 35 77 66 77 61 0 -3 12 6 27 20 15 14 30 23 35
20 5 -3 7 -1 6 4 -2 6 1 10 5 10 5 1 17 10 26 21 10 12 22 21 26 21 4 0 18 11
31 26 13 14 24 22 24 18 0 -4 7 1 15 12 8 10 15 15 15 11 0 -4 11 3 24 17 13
15 28 26 33 26 5 0 22 14 38 30 16 17 35 28 43 25 7 -2 11 -1 8 4 -3 5 6 16
20 26 14 9 35 26 47 38 12 12 24 22 27 22 15 1 89 62 90 73 0 7 5 10 11 7 5
-4 21 5 34 19 13 14 27 26 30 26 5 0 21 13 69 56 14 13 26 20 26 17 0 -3 9 4
20 17 11 13 20 20 20 15 0 -4 12 4 26 19 15 14 34 26 42 26 8 0 12 3 9 6 -5 6
60 60 80 67 4 1 22 17 40 35 18 18 33 29 33 25 1 -4 10 3 20 16 11 13 20 21
20 17 0 -6 29 16 62 47 10 9 22 17 27 17 6 0 16 8 23 19 7 10 18 20 23 22 13
4 31 18 61 48 13 13 24 21 24 17 0 -4 7 -1 15 6 8 7 26 22 41 33 14 11 31 25
37 30 7 6 27 21 45 34 18 12 29 27 26 33 -4 7 -2 8 5 4 7 -5 20 1 31 14 10 12
21 21 24 21 19 -2 27 0 22 7 -2 4 19 23 49 42 29 19 51 38 49 42 -3 4 5 9 16
13 11 3 20 11 20 17 0 6 3 8 7 5 3 -4 17 5 30 19 12 14 23 23 23 20 0 -6 29
16 56 42 8 7 14 10 14 6 0 -4 13 7 28 24 16 18 32 32 37 32 7 0 52 35 105 82
14 13 30 25 35 26 6 2 28 19 50 38 22 19 46 34 53 34 7 0 10 5 7 10 -3 6 -1
10 5 10 6 0 18 7 26 15 8 8 24 21 36 29 l21 15 0 2941 c0 1617 -3 2944 -7
2947 -3 3 -4967 7 -11031 7 l-11025 1 -1 -45z"/>
</g>
</svg>
